<?xml version="1.0" encoding="utf-8"?>
<!-- Generator: Adobe Illustrator 23.0.1, SVG Export Plug-In . SVG Version: 6.00 Build 0)  -->
<svg version="1.1" id="Layer_1" xmlns="http://www.w3.org/2000/svg" xmlns:xlink="http://www.w3.org/1999/xlink" x="0px" y="0px"
	 viewBox="0 0 1000 1000" style="enable-background:new 0 0 1000 1000;" xml:space="preserve">
<style type="text/css">
	.st0{fill:url(#rect2178_1_);stroke:#010101;stroke-width:3.8205;stroke-linejoin:round;}
	.st1{fill:#FFFFFF;stroke:#010101;stroke-width:3.8205;}
	.st2{fill:#292E77;stroke:#010101;stroke-width:1.9103;}
	.st3{fill:#C05027;fill-opacity:0.9982;stroke:#010101;stroke-width:3.8205;}
	.st4{fill:none;stroke:#010101;stroke-width:3.8205;}
	.st5{fill:url(#path3430_1_);stroke:#010101;stroke-width:3.8205;stroke-linecap:round;stroke-linejoin:round;}
	.st6{fill:#E21F26;stroke:#010101;stroke-width:3.8205;stroke-linejoin:round;}
	.st7{fill:#80361A;stroke:#010101;stroke-width:3.8205;}
	.st8{fill:#80361A;stroke:#010101;stroke-width:3.9567;}
	.st9{fill:#9D4222;stroke:#010101;stroke-width:3.8205;}
	.st10{fill:none;stroke:#010101;stroke-width:3.8205;stroke-linejoin:round;}
	.st11{fill:none;stroke:#010101;stroke-width:4.1005;stroke-linejoin:round;}
	.st12{fill:none;stroke:#010101;stroke-width:3.5082;stroke-linejoin:round;}
	.st13{fill:none;stroke:#010101;stroke-width:4.266;stroke-linejoin:round;}
	.st14{fill:#C05027;fill-opacity:0.9982;stroke:#010101;stroke-width:3.8205;stroke-linejoin:round;}
	.st15{fill:#9D4222;fill-opacity:0.9957;stroke:#010101;stroke-width:3.8205;}
	.st16{fill:#9D4222;fill-opacity:0.9957;stroke:#010101;stroke-width:3.8939;}
	.st17{fill:#FEE01B;stroke:#010101;stroke-width:3.8205;stroke-linejoin:round;}
	.st18{fill:#E91E25;stroke:#010101;stroke-width:3.8205;}
	.st19{fill:#FEE01B;stroke:#010101;stroke-width:3.8205;}
	.st20{fill:#FFFFFF;stroke:#010101;stroke-width:3.0564;}
	.st21{fill:#010101;fill-opacity:0.9915;}
	.st22{fill:#010101;}
	.st23{font-family:'ArialMT';}
	.st24{font-size:20.7388px;}
</style>
<g>
	<g id="g2273" transform="matrix(2.08289, 0, 0, 2.08289, -39.4411, -436.35)">
		<g id="g2275">
			<g id="g2732" transform="matrix(0.405405, 0, 0, 0.405405, 12.2323, 203.044)">
				
					<linearGradient id="rect2178_1_" gradientUnits="userSpaceOnUse" x1="69.6729" y1="13941.0771" x2="69.6729" y2="13622.1729" gradientTransform="matrix(0.8444 0 0 -0.8444 549.0795 12250.666)">
					<stop  offset="0" style="stop-color:#60BBE9"/>
					<stop  offset="1" style="stop-color:#36459C"/>
				</linearGradient>
				<path id="rect2178" class="st0" d="M818,425.3c-5,0-9.1,4-9.1,9.1v0.7c0,5,4,9.1,9.1,9.1h332.6c5,0,9.1-4,9.1-9.1v-0.7
					c0-5-4-9.1-9.1-9.1H818z M71,425.6c-5,0-9.1,4-9.1,9.1v0c0,5,4,9.1,9.1,9.1h426.2c5,0,9.1-4,9.1-9.1v0c0-5-4-9.1-9.1-9.1H71z
					 M65.2,756.7c-5,0-9.1,3.4-9.1,7.7c0,4.3,4,7.7,9.1,7.7h1085.5c5,0,9.1-3.4,9.1-7.7c0-4.3-4-7.7-9.1-7.7H65.2z"/>
				<path id="path3892" class="st1" d="M331.7,427.5c-12.1,0.6-24.1,12.6-10.9,32.4l-49.3,48l18.3,22.1l49-50.3
					c32.3,18.4,44.7-32.2,9.6-31.4C350.6,433.4,341.1,427,331.7,427.5z M53.6,430.7c-8.7,0.5-16.7,7-14.6,20.9
					c-35.1-0.9-22.7,49.7,9.6,31.4l49,50.3l18.3-22.1l-49.3-48C80.4,442.2,66.3,430,53.6,430.7z M96.2,683l-49,50.3
					c-32.3-18.4-44.7,32.3-9.6,31.4c-5.1,34.2,51,23.6,27.6-11.5l49.3-48L96.2,683z M289.7,685.6l-18.3,22.1l49.3,48
					c-23.5,35.1,32.7,45.7,27.6,11.5c35.1,0.9,22.6-49.8-9.6-31.4L289.7,685.6z"/>
				<path id="path3219" class="st2" d="M616.6,409.7h13.6c0.1,2,0.1,4.5,0,6.4c0.4,28.9-15.5,46.5-52.5,45.7v-13.1
					c23.5-0.5,38.9-7.3,38.9-32.6C616.7,414.1,616.7,412,616.6,409.7z"/>
				<path id="path3221" class="st2" d="M633.6,402.9v47.4c0,6.4,6.1,11.9,12,12h39.1v-12.6h-33.7c-2.2,0-2.9-1.4-2.8-4.9v-18.1h37.5
					v-14.5h-5.2c-0.8,1.6-2.5,2.8-4.5,2.8c-2,0-3.6-1.1-4.5-2.8h-23.4v-9.2H633.6z"/>
				<path id="rect3232" class="st2" d="M686.5,420.7v15.4h53.6v-15.4H686.5z"/>
				<path id="path3223" class="st2" d="M676.2,400.8c-4.9,0-9,4.1-9,9.1c0,5,4,9,9,9c4.9,0,9-4,9-9
					C685.2,404.8,681.1,400.8,676.2,400.8z M676.2,404.7c2.8,0,5.1,2.3,5.1,5.2c0,2.9-2.3,5.2-5.1,5.2c-2.8,0-5.1-2.3-5.1-5.2
					C671.1,407,673.4,404.7,676.2,404.7z"/>
				<path id="path2240" class="st2" d="M519.9,402.5v26.7h13.6v-12.7h24.2c0.1,30.7-19.7,32.6-35.3,32.6v13.6
					c10.3,0,49.4,1,49.1-46.2c0-4.7,0-9.3,0-14H519.9z"/>
				<path id="path3217" class="st2" d="M575,402.5v13.1h31.7c0-4.7,0-8,0-13.1H575z"/>
				<path id="path3237" class="st2" d="M744.6,406.7h41.2v12.8c0.2,6.5-1.7,11.5-3.8,16.2c3.7,6.9,8.1,11.4,12.6,13.6V463
					c-6.8-2.7-13.6-5.5-19.1-17c-9.7,12.7-21.9,17.1-34.9,16.2v-13.1c2.3-0.1,2.1,0,5.1,0c7.1,0,27.1-14.9,25.8-29.6h-26.9V406.7z"
					/>
				<path id="path3567" class="st3" d="M378.2,755.3c6.4-4.8,81.8-44.1,133.2,0c35.2,30.3,63,17.7,63,17.7l38.9-0.9
					c-25.5,16.1-55.8,38.9-117.3-6.3c-22.5-16.6-52.6-22.5-83.3-10.4C409.9,755.3,378.2,755.3,378.2,755.3z"/>
				<path id="path3569" class="st4" d="M405.4,743.5"/>
				<path id="path3571" class="st4" d="M405.8,743.1c-0.6,0.4,0.3-1.6-0.5,2.3"/>
				<path id="path3573" class="st4" d="M405.4,755.3l0.9-11.3"/>
				<path id="path3575" class="st4" d="M421.2,737.2l1.4,16.3"/>
				<path id="path3577" class="st4" d="M438.9,750.3l0.9-14.9"/>
				<path id="path3579" class="st4" d="M454.7,734.9l-1.4,14.5"/>
				<path id="path3581" class="st4" d="M466.5,752.6"/>
				<path id="path3583" class="st4" d="M476.5,736.7l-9.5,14.5"/>
				<path id="path3585" class="st4" d="M480.1,755.3l12.7-10.4"/>
				<path id="path3587" class="st4" d="M507.3,753l-13.6,9.1"/>
				<path id="path3589" class="st4" d="M511.8,775.7l14.5-11.3"/>
				<path id="path3591" class="st4" d="M553.5,774.3"/>
				<path id="path3593" class="st4" d="M541.2,787.4l10.9-12.2"/>
				<path id="path3595" class="st4" d="M564.3,774.3v18.6"/>
				<path id="path3597" class="st4" d="M582.9,787"/>
				<path id="path3599" class="st4" d="M582,772l-0.9,14.5"/>
				
					<linearGradient id="path3430_1_" gradientUnits="userSpaceOnUse" x1="60.7694" y1="13936.9561" x2="60.7694" y2="13614.9082" gradientTransform="matrix(0.8444 0 0 -0.8444 549.0795 12250.666)">
					<stop  offset="0" style="stop-color:#60BBE9"/>
					<stop  offset="1" style="stop-color:#36459C"/>
				</linearGradient>
				<path id="path3430" class="st5" d="M1115.6,461.5l8.2,9.5c-136.7,31.9-145.8,225.8-0.9,264.5l-6.3,11.3l35.8-9.9l-24.9-24
					l-1.4,12.2c-63.8-27.6-77.4-96.6-77.4-117.7h33.1c0,0,0,12.9,0,17.7c0,7.2,11.3,7.5,11.3,0c0-5.6,0-16.8,0-16.8h10.4
					c3.3,18.2,26,25.9,37.3,12.9c3.8-4.4,6.2-11.1,6.2-20.6c0-10.3-2.8-17.5-7.1-22.1c-11.4-12.4-33-5.1-36,14.4h-10.9
					c0,0,0-9.8,0-15.8c0-8.4-11.3-7.6-11.3,0c0,5.2,0,15.4,0,15.4h-33.1c6.3-53.5,37.8-86.2,80.2-109.6v12.7l22.2-24.5L1115.6,461.5
					z M192.6,465.6c-79.5,0-144,64.5-144,144c0,79.5,64.5,144,144,144c79.5,0,144-64.5,144-144C336.6,530.1,272.1,465.6,192.6,465.6
					z M338.3,473c4.2,4.6,9.2,8.6,9.6,19.2c3.2,76.9,6.4,152.6-5.8,233.2c-1,6.6-7,12.5-12.2,13.4h55.7c-4.4-23.7-2.8-47.4,1.3-71.1
					c5.1,23.7,11.6,47.4,21.8,71.1h35.9c-9.9-109-2.9-254.7,3.8-265.8h-48c4.1,32.2-0.4,43-2.6,59.5c-4.9-16.4-9.1-27.8-9.6-59.5
					H338.3z M451.6,473c12.7,9.9,12.8,59.6,12.8,128.1c0,66.4,3.7,129.8-19.2,137.7h115.3v-48.2c-19.2,26.1-67,15-67-17.2
					c0-33.2,0.3-66,0.3-66c25.2-6.3,39.3,12.4,44.2,21.8l-0.6-57c-10.4,20.1-33.9,24.7-44.2,24.3c0,0,0.4-52.5,0.6-63.4
					c0.9-41.9,62.4-42.3,67.3-7.7V473H451.6z M594.5,473c2.8,1.3,5.3,9.5,6.2,18.6c2.6,24.1,2.7,65,2.7,114c0,47-3.1,90.9-6.3,115.3
					c-1.4,10.7-5.6,14.3-9.1,17.9h59.6c-14.6-4.1-13-64.9-12.5-74c22,0,60.6-9.6,60.6-38.5c0-34.6,0.6-61.8,0.6-100.9
					c0-29.7-15-52.5-44.4-52.5C624.7,473,594.5,473,594.5,473z M792.2,473c12.7,9.9,12.8,59.6,12.8,128.1
					c0,66.4,3.8,129.8-19.2,137.7h115.3v-48.2c-19.2,26.1-67,15-67-17.2v-66c23.5,0,39.7,14.4,44.6,23.7v-58.9
					c-10.4,20.1-23.7,24.3-44.6,24.3v-63.4c0-41.9,62.7-42.3,67.6-7.7V473H792.2z M961,473.6c-26.4,0.4-52.8,17.3-52.8,54v147.6
					c0,95.6,106,71.9,106,10.4v-56.1h-45.8c5.9,10.9,6.4,33.9,6.4,43.5c0,19.7-29,24.5-29-4.1V540.3c-0.5-30.1,28.6-24.7,28.6-13.6
					c0,10.9,4.3,37.7-5,45.3h44.8v-53C1013.9,489.4,987.4,473.2,961,473.6z M635.2,500.9c6.7,0,29.8,3.4,29.8,21.3
					c0,28.7,0,54,0,85.1c0,30.2-23,28.1-29.8,28.1V500.9z M1123.7,589.3c4.7,0,8.5,4.9,8.5,10.9c0,6-3.8,10.8-8.5,10.8
					c-4.7,0-8.6-4.8-8.6-10.8C1115.2,594.1,1119,589.3,1123.7,589.3z"/>
				<path id="path3256" class="st6" d="M749.1,470.4c-9.4,0-17.5,6.1-20.9,14.7l-24.1,6.4l22.5,5.5c1,8.6,6.3,15.8,13.7,19v6.1
					c-22.6,4.3-39.7,23.9-39.7,47.5c0,14.8,6.8,28.1,17.5,37l-9.7,13l8.3,0.8l-8,12.8h15.4l-10,35.3l14.5-0.1l3.2,53.3
					c-26.4-0.6-46.3,38.2,17.6,4.1c25.6,25.8,49.1,14.3,16-3.2l3.4-54.4l12.6-0.1l-7.2-35h13.6l-8-12.8l8-0.8l-8.5-11.4
					c11.8-8.8,19.5-22.8,19.5-38.6c0-23.6-17.1-43.2-39.7-47.5v-6.6c6.7-3.4,11.6-10,12.6-18l24.2-7l-25.6-5.2
					C766.8,476.6,758.6,470.4,749.1,470.4z M766.2,554.7c6.2,4.9,10.2,12.5,10.2,21.1c0,8.5-4,16.1-10.2,21.1V554.7z M731.7,555.7
					v40c-5.5-4.9-9-12-9-20C722.7,567.8,726.2,560.7,731.7,555.7z"/>
				<path id="path3901" class="st1" d="M226.9,714.5l14.9,22.6c-36.7,48.7-72.9,40.4-106-1.4l14.9-25.8L226.9,714.5z"/>
				<path id="path3903" class="st1" d="M236,729.3c-32.3,18.4-69.2,13.5-95.1-4.2"/>
				<path id="path3905" class="st1" d="M181.2,721.3l-4.5,18.6"/>
				<path id="path3907" class="st1" d="M203.6,740l-3.9-17.4"/>
				<path id="path3535" class="st3" d="M171.7,720.9c-25.3,18.2-51,37.9-81.1,71.6l1.8,21.3l-5.4-8.2l-3.2,4.1l-2.7-11.3l-7.7,1.8
					v-9.5l-12.2-0.9l1.8-4.5h-7.7l23.6-4.1c21.3-25.5,44.9-47.1,69.7-66.6L171.7,720.9z"/>
				<path id="path3538" class="st7" d="M114.6,744.9l4.5,16.8"/>
				<path id="path3540" class="st8" d="M134.6,727.3l4.8,18.3"/>
				<path id="path3542" class="st7" d="M159.4,728.6l-4.5-12.2"/>
				<path id="path3544" class="st7" d="M102.4,778.4L96,763.4"/>
				<path id="path3546" class="st7" d="M91,792.9c-2.3-2.3-11.8-12.2-11.8-12.2"/>
				<path id="path3548" class="st3" d="M207.4,719c90.6,99.2,129.9,80.9,171.2,55.7l-33.1-1.4c-49.5,18.1-92.3-37.8-116.4-58.9
					L207.4,719z"/>
				<path id="path3550" class="st9" d="M219.2,731.3c18.6-8.2,19.5-8.2,19.5-8.2"/>
				<path id="path3552" class="st9" d="M255.4,739.9l-19.9,7.7"/>
				<path id="path3554" class="st9" d="M271.3,753.5l-16.8,10.9"/>
				<path id="path3556" class="st9" d="M289,767.5l-14,9.5"/>
				<path id="path3558" class="st9" d="M308.9,775.2l-12.7,13.1"/>
				<path id="path3560" class="st9" d="M327.9,777.5l-8,16.6"/>
				<path id="path3562" class="st9" d="M346.5,788.8l-1.4-14"/>
				<path id="path3601" class="st3" d="M613.7,755.3c6.1-5.7,53-47.2,100.1,7.2c14.1,16.4,37.5,15.6,51.2,10h35.8
					c-33.3,19.7-62.5,38-111.9-6.3c-27.8-24.9-40.7-9.7-40.7-9.7L613.7,755.3z"/>
				<path id="path3625" class="st3" d="M797.6,755.5c0,0,7.3-1.1,42.4,0c8.1-4.9,18.6-7.2,44.1,11.1c21.2,15.1,54.5,49.3,98.6,48.7
					c28.9-0.4,67.4-17.8,96.3-46.7c12.4-12.5,40.4-60.2,43.5-91.1l-13.7-17.3c-4.1,56.6-69.2,147.4-137.2,135
					c-31-5.7-83.8-50-102.4-56.2l-33.1-0.5C822.4,739,808,749.6,797.6,755.5z"/>
				<path id="path3603" class="st9" d="M643.6,757.1"/>
				<path id="path3605" class="st9" d="M642.7,739.4l0.9,15.9"/>
				<path id="path3607" class="st9" d="M658.1,752.1l2.7-18.6"/>
				<path id="path3609" class="st9" d="M686.6,740.8"/>
				<path id="path3611" class="st9" d="M673,755.7l12.7-14.5"/>
				<path id="path3613" class="st9" d="M689.3,766.6l17.2-12.2"/>
				<path id="path3615" class="st9" d="M723.7,768.4l-14,11.3"/>
				<path id="path3617" class="st9" d="M733.3,792l10.4-16.8"/>
				<path id="path3619" class="st9" d="M759.1,774.3l0.5,19"/>
				<path id="path3621" class="st9" d="M777.6,784.7"/>
				<path id="path3623" class="st9" d="M776.3,772l0.9,11.8"/>
				<path id="path3629" class="st10" d="M830.2,740.3c0.5-0.1,0.5,6.4,0.5,8.2c0,2.4,0,4.8,0,7.2"/>
				<path id="path3631" class="st10" d="M848,737.6l-4.5,14.9"/>
				<path id="path3635" class="st11" d="M869.3,740.6l-10.1,12.3"/>
				<path id="path3637" class="st10" d="M889.1,750.3l-13.6,9.5"/>
				<path id="path3639" class="st10" d="M904.9,759.8l-13.1,11.8"/>
				<path id="path3641" class="st10" d="M922.6,772.5l-15.4,10.4"/>
				<path id="path3645" class="st12" d="M926.4,796.3l13.8-12.7"/>
				<path id="path3647" class="st10" d="M959.7,790.6l-12.2,17.2"/>
				<path id="path3649" class="st10" d="M979.2,796.9"/>
				<path id="path3651" class="st10" d="M969.2,812.8l11.3-16.3"/>
				<path id="path3653" class="st10" d="M1000.9,794.2"/>
				<path id="path3655" class="st10" d="M995,813.3"/>
				<path id="path3657" class="st10" d="M1001.8,792.9l-5.9,20.4"/>
				<path id="path3659" class="st10" d="M1026.3,785.2l-1.4,19.5"/>
				<path id="path3661" class="st10" d="M1053,787"/>
				<path id="path3663" class="st10" d="M1047.1,770.7l6.2,18"/>
				<path id="path3665" class="st13" d="M1066.5,754.3l8.9,15.8"/>
				<path id="path3667" class="st10" d="M1092,748.9l-10.4-16.3"/>
				<path id="path3669" class="st10" d="M1104.6,724l-10.9-12.7"/>
				<path id="path3673" class="st10" d="M1104.2,691l12.1,8.5"/>
				<path id="path3853" class="st14" d="M1121.6,619.3c10.9,16.2,16.4,23.7,39.7,45.2c-4.2-0.8-7.7-2.1-10.8-3.7
					c-3.1-1.6-5.8-5.6-8.4-7.5c3.6,6.3,6.1,12.6,7,18.9c-4.9-4.6-9-8.3-14.7-13.8c4.1,9.7,2.8,12.7,3.8,18.6
					c-12.6-11.9-23.9-24.2-31.4-37.8L1121.6,619.3z"/>
				<path id="path3855" class="st15" d="M1137.9,638.9l-25.8,1.8"/>
				<path id="path3861" class="st15" d="M1148.8,652.1l-24.6,8.1"/>
				<path id="path3865" class="st3" d="M1118.8,589.2c6.8-3.3,16.2,9.9,9.3,17.9c-7.7,9-18.3,37.3-1.6,64.4
					c5.5,8.9-7.1,17.3-18.3,3.2C1090.9,652.7,1100,598.5,1118.8,589.2z"/>
				<path id="path3867" class="st15" d="M1110.2,597.2l13.8,14.7"/>
				<path id="path3869" class="st15" d="M1117.5,630.5l-14.4-8.6"/>
				<path id="path3871" class="st16" d="M1118.4,653.2c-1.4-0.3-17.5-4-17.5-4"/>
				<path id="path3873" class="st15" d="M1123.6,668l-18.9-1"/>
				<path id="path3485" class="st17" d="M191.2,510.3c-48,0-87.8,34.1-95.2,78.8h190.4C279,544.4,239.1,510.3,191.2,510.3z"/>
				<path id="path3510" class="st18" d="M102.8,566.9c58.7-9.9,121.4-9.9,177.2,2.4c3.2,4.9,4.2,10.9,5.8,16.6L97.4,585
					C98,578.9,98.7,572.9,102.8,566.9z"/>
				<path id="path3502" class="st19" d="M36,602.7c132.8,27.6,248.5,22,306.8-2.7C253,559.3,96.1,566,36,602.7z"/>
				<path id="path3514" class="st20" d="M158.5,697.8l-11.3,16.3c28.2,8.8,57.8,9.8,86.1,0.5l-10-18.6L158.5,697.8z"/>
				<path id="path3516" class="st20" d="M183,721.3l0.9-20.4"/>
				<path id="path3518" class="st20" d="M198.4,721.3l0.5-19.5"/>
				<path id="path3520" class="st20" d="M214.2,702.7l4.1,16.8"/>
				<path id="path3522" class="st20" d="M163.1,718.6l5.9-19.5"/>
				<path id="path3483" class="st1" d="M95.1,606.7c4.6-14.4,25.6-19.2,96-19.8c70.4-0.7,94.2,3.3,96.9,17.6
					c3.9,20.3-14.1,101.9-96.9,101.9C107.9,706.4,89.3,624.9,95.1,606.7z"/>
				<path id="path3504" class="st21" d="M178.5,639.3c0,16.8-13.6,30.3-30.3,30.3c-16.8,0-30.3-13.6-30.3-30.3
					c0-16.8,13.6-30.3,30.3-30.3C164.9,609,178.5,622.6,178.5,639.3z"/>
				<path id="path3506" class="st21" d="M264.5,639.3c0,16.8-13.6,30.3-30.3,30.3c-16.8,0-30.3-13.6-30.3-30.3
					c0-16.8,13.6-30.3,30.3-30.3C250.9,609,264.5,622.6,264.5,639.3z"/>
				<path id="path3508" class="st21" d="M203.4,677.4c0,6.8-5.5,12.2-12.2,12.2s-12.2-5.5-12.2-12.2c0-6.8,5.5-12.2,12.2-12.2
					S203.4,670.6,203.4,677.4L203.4,677.4z"/>
			</g>
		</g>
	</g>
	<text transform="matrix(1 0 0 1 970.0557 653.9551)" class="st22 st23 st24">TM</text>
</g>
</svg>
